<?xml version="1.0" standalone="no"?>
<!DOCTYPE svg PUBLIC "-//W3C//DTD SVG 20010904//EN"
 "http://www.w3.org/TR/2001/REC-SVG-20010904/DTD/svg10.dtd">
<svg version="1.0" xmlns="http://www.w3.org/2000/svg"
 width="1200.000000pt" height="675.000000pt" viewBox="0 0 1200.000000 675.000000"
 preserveAspectRatio="xMidYMid meet">
<metadata>
Created by potrace 1.16, written by Peter Selinger 2001-2019
</metadata>
<g transform="translate(0.000000,675.000000) scale(0.100000,-0.100000)"
fill="#000000" stroke="none">
<path d="M0 6626 l0 -124 28 -5 c15 -3 74 -3 132 0 58 3 251 0 430 -6 179 -7
395 -14 480 -16 461 -10 626 -18 663 -31 22 -8 52 -14 68 -14 30 0 69 -26 69
-46 0 -22 -46 -37 -81 -26 -39 13 -281 27 -704 43 -159 6 -310 12 -335 14 -25
3 -204 7 -397 10 l-353 7 0 -931 0 -931 168 -2 c92 -1 214 -3 272 -4 58 -1
289 -4 515 -8 226 -4 420 -10 433 -13 15 -4 25 -15 29 -34 3 -16 10 -32 14
-35 5 -3 9 -16 9 -30 0 -22 -3 -24 -27 -18 -16 4 -36 11 -45 16 -15 7 -346 20
-1135 44 l-233 7 0 -1005 0 -1005 223 -6 c122 -3 256 -11 297 -16 41 -6 135
-12 208 -14 107 -3 136 -7 149 -20 12 -12 14 -20 7 -27 -10 -10 -78 -7 -404
20 -63 5 -197 10 -297 10 l-183 0 0 -1215 0 -1215 1803 1 c991 1 1793 4 1782
5 -30 5 -577 44 -616 44 l-34 0 40 21 c22 12 55 32 73 46 l34 25 306 -16 c169
-9 376 -19 460 -23 l152 -6 0 -30 c0 -17 -7 -39 -17 -49 -16 -17 -2 -18 402
-18 385 0 424 2 484 19 48 15 122 23 276 30 116 6 287 22 380 36 94 14 197 25
230 25 88 0 171 -25 238 -70 l58 -40 240 0 239 0 1 43 1 42 15 -43 15 -42 204
0 204 0 6 25 c6 24 34 36 34 14 0 -6 7 -17 15 -25 13 -14 15 -11 15 25 0 22 5
43 12 47 8 5 9 -5 5 -39 l-7 -47 2475 0 2475 0 0 1198 0 1198 -45 19 c-32 14
-45 26 -45 40 1 24 67 98 80 90 6 -4 10 234 10 648 l0 655 -127 7 c-71 3 -180
11 -243 16 -63 5 -276 12 -472 16 -281 5 -361 3 -372 -7 -22 -17 -60 -5 -76
25 l-14 25 -27 -26 -28 -27 -58 16 c-83 22 -188 35 -433 52 -118 8 -267 19
-330 25 -160 14 -506 37 -750 50 -113 6 -216 13 -230 16 -14 3 -152 9 -306 13
-242 6 -285 9 -308 24 -26 17 -35 50 -16 62 6 3 10 21 10 40 0 63 15 69 180
61 147 -7 319 -20 490 -37 291 -29 964 -79 1045 -78 33 1 101 -6 150 -14 50
-9 173 -26 275 -37 102 -12 191 -23 199 -26 22 -7 142 -26 191 -29 25 -1 169
-10 320 -19 378 -21 592 -35 745 -46 72 -6 142 -10 158 -10 l27 0 0 970 c0
534 -1 970 -2 970 -2 0 -131 7 -288 15 -157 8 -359 19 -450 24 -91 5 -266 15
-390 21 -124 6 -414 22 -645 36 -386 22 -657 35 -1370 64 -143 6 -325 15 -405
20 -506 35 -627 41 -815 40 -115 -1 -222 2 -237 5 -18 5 -34 2 -50 -9 -31 -22
-45 -20 -63 7 -21 32 -4 77 38 102 28 17 51 19 182 18 82 0 229 -8 325 -17
267 -23 453 -35 825 -51 319 -14 671 -31 1175 -55 118 -6 294 -17 390 -26 162
-13 379 -28 805 -54 181 -11 529 -35 735 -50 69 -5 151 -9 183 -10 l57 0 0
395 0 395 -6000 0 -6000 0 0 -124z m5232 -1217 c-29 -11 -20 -29 11 -22 18 4
19 3 7 -6 -12 -9 -10 -11 12 -11 15 0 30 -4 33 -10 3 -5 -1 -10 -10 -10 -9 0
-13 -4 -10 -10 3 -5 16 -10 28 -10 37 0 4 -17 -46 -24 -31 -4 -46 -2 -42 4 3
6 15 10 26 10 10 0 19 4 19 9 0 5 -15 7 -32 6 -18 -2 -43 -3 -55 -4 -27 -1
-56 -41 -47 -65 3 -9 17 -16 32 -16 33 0 138 -51 174 -85 14 -13 29 -39 33
-57 4 -18 14 -43 22 -55 18 -27 24 -59 28 -150 2 -39 7 -93 11 -120 4 -26 7
-52 6 -56 -1 -5 2 -6 7 -3 12 8 34 -21 26 -34 -3 -5 2 -10 12 -10 17 -1 17 -1
0 -14 -17 -13 -17 -14 1 -18 9 -3 18 -14 19 -24 1 -11 3 -26 5 -33 2 -8 -9
-21 -24 -28 -16 -8 -28 -20 -28 -28 0 -7 -4 -15 -9 -17 -5 -1 -24 -15 -43 -31
-61 -51 -137 -97 -160 -97 -27 0 -63 29 -107 88 -18 23 -38 42 -44 42 -7 0 -4
-5 6 -11 9 -5 17 -16 17 -23 0 -30 -30 -39 -126 -38 -78 1 -95 -1 -91 -13 3
-7 -1 -19 -8 -25 -30 -25 -29 46 1 203 6 28 24 38 24 13 0 -7 6 -19 13 -25 11
-8 18 -2 35 28 37 65 24 134 -34 180 -35 27 -42 26 -47 -6 -3 -19 -4 -15 -6
15 0 24 4 53 10 64 6 11 20 52 30 90 19 68 80 184 115 221 17 16 17 19 -4 47
-12 16 -22 36 -22 43 0 15 75 93 107 111 19 11 82 23 123 24 l25 1 -23 -10z
m2587 -414 c45 -11 162 -73 181 -94 3 -3 21 -13 41 -23 23 -10 42 -29 53 -52
9 -19 27 -48 40 -63 38 -46 55 -87 66 -160 13 -89 18 -233 8 -233 -4 0 -8 11
-8 24 0 33 -16 41 -46 25 -22 -11 -27 -10 -55 17 -17 16 -35 38 -39 49 l-8 20
-8 -20 c-17 -47 -43 -59 -128 -59 -78 -1 -83 -3 -145 -45 l-65 -43 -44 22
c-24 13 -59 36 -78 52 -32 29 -38 30 -92 24 -55 -6 -60 -4 -127 38 -38 24 -88
57 -110 73 -38 28 -40 32 -38 77 2 38 13 63 58 130 79 121 140 168 288 227 83
33 169 38 256 14z m-2780 -721 c127 17 141 18 141 6 0 -7 7 -10 15 -6 9 3 21
-4 31 -19 13 -20 14 -31 5 -56 -14 -42 -14 -52 2 -46 7 3 28 -8 47 -24 29 -24
32 -30 20 -39 -8 -5 -42 -10 -75 -10 -40 0 -69 -6 -84 -16 -19 -13 -39 -16
-101 -11 -44 3 -83 8 -89 12 -12 7 -16 182 -5 209 5 12 10 13 26 5 12 -6 40
-8 67 -5z m72 -531 c1 -5 3 -23 5 -41 3 -46 29 -72 65 -68 16 2 36 9 45 17 13
10 17 10 24 -1 6 -10 17 -9 54 6 25 10 49 27 52 37 7 24 30 21 48 -5 12 -17
18 -20 28 -10 7 7 20 12 30 12 23 0 60 -40 53 -58 -3 -8 0 -12 7 -10 6 2 16
22 22 43 6 21 17 40 25 43 11 4 13 -4 7 -38 -4 -24 -9 -46 -11 -50 -7 -11
-155 -22 -266 -21 -59 1 -121 8 -163 20 -64 18 -117 52 -115 75 0 6 3 5 6 -1
6 -16 43 2 43 20 0 23 38 50 41 30z m-1081 -1003 c-5 -52 -12 -138 -15 -190
-4 -52 -15 -138 -26 -190 -10 -52 -28 -166 -39 -252 -26 -214 -24 -208 -63
-198 -18 4 -88 11 -157 14 -68 4 -127 10 -130 15 -3 4 -23 7 -45 7 -150 -1
-392 8 -401 16 -6 4 -75 10 -154 13 -78 3 -146 7 -150 10 -5 3 -7 12 -4 20 4
8 11 12 17 8 6 -3 7 -1 3 5 -4 7 -20 12 -37 12 -16 0 -29 3 -29 6 0 15 37 33
66 34 16 0 35 5 42 12 9 9 15 9 24 0 7 -7 34 -12 60 -12 27 0 65 -7 86 -15 24
-10 38 -12 40 -5 2 5 13 8 25 5 14 -4 30 1 44 15 12 11 29 20 37 20 8 0 18 5
21 10 3 6 39 10 80 10 42 0 77 5 81 11 3 6 15 8 25 6 24 -6 97 20 125 45 11
10 32 18 47 18 25 0 27 3 27 40 0 29 -4 40 -15 40 -9 0 -15 9 -15 25 0 23 -4
25 -44 25 -28 0 -48 -6 -57 -16 -12 -14 -14 -14 -26 2 -24 33 -16 44 31 44 36
0 46 4 51 20 3 11 14 20 23 20 10 0 23 9 29 19 11 17 9 21 -7 26 -34 11 -160
-6 -160 -21 0 -18 -14 -18 -30 1 -7 9 -29 15 -51 15 l-39 0 0 41 0 42 -60 -6
-60 -5 0 44 0 44 80 0 80 0 0 34 0 33 70 7 c39 4 79 5 89 1 10 -3 24 1 31 10
7 8 19 15 28 15 8 0 28 14 44 30 29 31 54 38 60 19 2 -6 10 12 17 40 13 50 24
59 65 52 4 -1 13 5 20 13 13 17 77 27 159 26 57 -1 57 -1 64 31 l6 32 13 -49
c10 -37 11 -73 4 -144z m4578 -223 c28 -29 34 -41 27 -53 -15 -23 -96 -51
-160 -57 l-55 -4 0 36 c0 41 26 139 42 158 14 17 94 -28 146 -80z m392 -497
c400 -39 946 -100 1120 -125 l95 -14 -88 4 c-48 3 -143 11 -210 19 -168 20
-277 26 -277 15 0 -5 -9 -9 -20 -9 -11 0 -20 7 -20 15 0 17 -46 21 -52 5 -3
-10 -180 3 -258 19 -76 16 -128 22 -105 11 15 -6 16 -9 4 -9 -9 -1 -18 2 -22
5 -3 4 -25 8 -48 9 -23 2 -45 8 -48 13 -3 6 -31 12 -63 13 -31 2 -54 0 -51 -5
4 -5 -25 -6 -68 -2 -133 13 -149 17 -149 37 0 24 2 24 260 -1z m30 -66 c437
-49 477 -53 650 -74 96 -11 258 -29 360 -41 361 -39 437 -48 591 -69 86 -11
199 -30 250 -41 52 -11 106 -23 122 -26 16 -3 27 -12 27 -22 1 -14 2 -14 11 1
5 9 16 15 24 12 11 -5 9 -14 -13 -47 -24 -36 -27 -38 -30 -18 -4 29 -26 22
-30 -10 -1 -13 -5 -35 -8 -49 -5 -22 -7 -23 -15 -7 -6 10 -8 26 -4 36 5 15 2
18 -13 14 -10 -2 -24 3 -31 11 -12 14 -15 14 -37 0 -22 -15 -26 -14 -56 4 -29
18 -105 38 -178 47 -14 2 -88 12 -165 23 -286 40 -510 65 -740 82 -77 6 -178
15 -225 20 -47 5 -134 14 -195 19 -102 10 -273 27 -355 36 -19 2 -79 7 -132
11 l-98 7 0 56 0 57 33 -3 c17 -2 133 -15 257 -29z m-6450 -155 c129 -6 307
-12 395 -14 88 -3 221 -10 295 -16 168 -14 168 -14 507 -9 141 2 143 1 143
-66 l0 -55 -189 5 c-105 3 -213 11 -241 17 -29 6 -64 9 -78 6 -30 -7 -481 7
-812 23 -201 10 -374 25 -411 36 -19 5 -43 54 -32 65 21 20 112 22 423 8z
m-1048 -174 c67 -11 88 -76 47 -142 -21 -34 -23 -35 -68 -28 -25 4 -48 8 -49
10 -8 8 -14 125 -8 150 5 18 12 25 24 21 9 -2 34 -7 54 -11z"/>
<path d="M5105 4832 c-40 -14 -51 -22 -53 -42 -2 -14 -7 -29 -12 -34 -15 -15
10 -50 61 -84 27 -18 48 -36 45 -40 -8 -13 105 4 146 22 21 9 52 16 70 16 24
0 29 3 21 11 -6 6 -9 17 -7 24 6 14 -78 60 -127 70 -59 11 -69 16 -69 30 0 7
-6 15 -12 18 -8 3 -3 9 12 15 l25 11 -25 0 c-14 0 -47 -8 -75 -17z"/>
</g>
</svg>
